<?xml version="1.0" encoding="iso-8859-1"?>
<!-- Generator: Adobe Illustrator 19.0.0, SVG Export Plug-In . SVG Version: 6.00 Build 0)  -->
<svg version="1.1" id="Capa_1" xmlns="http://www.w3.org/2000/svg" xmlns:xlink="http://www.w3.org/1999/xlink" x="0px" y="0px"
	 viewBox="0 0 512 512" style="enable-background:new 0 0 512 512;" xml:space="preserve">
<path style="fill:#FF598E;" d="M440.937,74.96v399.047c0,20.982-17.011,37.993-37.993,37.993H109.045
	c-20.982,0-37.982-17.011-37.982-37.993V74.96c0-20.982,17.001-37.993,37.982-37.993h293.899
	C423.926,36.968,440.937,53.98,440.937,74.96z"/>
<polyline style="fill:#FFFFFF;" points="317.513,102.796 390.782,102.796 390.782,438.2 121.218,438.2 121.218,102.796 
	193.306,102.796 "/>
<g>
	<path style="fill:#3A536E;" d="M211.654,230.923h-57.598c-4.328,0-7.837-3.509-7.837-7.837v-57.597
		c0-4.328,3.509-7.837,7.837-7.837h57.598c4.328,0,7.837,3.509,7.837,7.837v57.597C219.491,227.414,215.982,230.923,211.654,230.923
		z M161.893,215.249h41.925v-41.923h-41.925V215.249z"/>
	<path style="fill:#3A536E;" d="M211.654,317.318h-57.598c-4.328,0-7.837-3.509-7.837-7.837v-57.597
		c0-4.328,3.509-7.837,7.837-7.837h57.598c4.328,0,7.837,3.509,7.837,7.837v57.597C219.491,313.81,215.982,317.318,211.654,317.318z
		 M161.893,301.645h41.925v-41.923h-41.925V301.645z"/>
	<path style="fill:#3A536E;" d="M211.654,403.715h-57.598c-4.328,0-7.837-3.509-7.837-7.837v-57.597
		c0-4.328,3.509-7.837,7.837-7.837h57.598c4.328,0,7.837,3.509,7.837,7.837v57.597C219.491,400.206,215.982,403.715,211.654,403.715
		z M161.893,388.041h41.925v-41.923h-41.925V388.041z"/>
	<path style="fill:#3A536E;" d="M354.735,218.384H246.593c-4.328,0-7.837-3.509-7.837-7.837s3.509-7.837,7.837-7.837h108.142
		c4.328,0,7.837,3.509,7.837,7.837S359.063,218.384,354.735,218.384z"/>
	<path style="fill:#3A536E;" d="M312.418,185.864h-65.826c-4.328,0-7.837-3.509-7.837-7.837s3.509-7.837,7.837-7.837h65.826
		c4.328,0,7.837,3.509,7.837,7.837S316.746,185.864,312.418,185.864z"/>
	<path style="fill:#3A536E;" d="M354.735,304.781H246.593c-4.328,0-7.837-3.509-7.837-7.837s3.509-7.837,7.837-7.837h108.142
		c4.328,0,7.837,3.509,7.837,7.837S359.063,304.781,354.735,304.781z"/>
	<path style="fill:#3A536E;" d="M312.418,272.259h-65.826c-4.328,0-7.837-3.509-7.837-7.837s3.509-7.837,7.837-7.837h65.826
		c4.328,0,7.837,3.509,7.837,7.837C320.255,268.751,316.746,272.259,312.418,272.259z"/>
	<path style="fill:#3A536E;" d="M354.735,391.176H246.593c-4.328,0-7.837-3.509-7.837-7.837s3.509-7.837,7.837-7.837h108.142
		c4.328,0,7.837,3.509,7.837,7.837S359.063,391.176,354.735,391.176z"/>
	<path style="fill:#3A536E;" d="M312.418,358.656h-65.826c-4.328,0-7.837-3.509-7.837-7.837s3.509-7.837,7.837-7.837h65.826
		c4.328,0,7.837,3.509,7.837,7.837S316.746,358.656,312.418,358.656z"/>
</g>
<path style="fill:#FCDF5D;" d="M323.205,126.714H188.794V17.691C188.794,7.92,196.715,0,206.486,0h99.027
	c9.771,0,17.691,7.92,17.691,17.691V126.714z"/>
<g>
	<path style="fill:#3A536E;" d="M230.923,99.664L230.923,99.664c-7.79,0-14.105-6.315-14.105-14.105V51.078
		c0-7.79,6.315-14.105,14.105-14.105l0,0c7.79,0,14.105,6.315,14.105,14.105v34.48C245.029,93.348,238.713,99.664,230.923,99.664z"
		/>
	<path style="fill:#3A536E;" d="M281.077,99.664L281.077,99.664c-7.791,0-14.105-6.315-14.105-14.105V51.078
		c0-7.79,6.315-14.105,14.105-14.105l0,0c7.79,0,14.105,6.315,14.105,14.105v34.48C295.182,93.348,288.866,99.664,281.077,99.664z"
		/>
</g>
<path style="fill:#FF598E;" d="M182.86,290.607c-4.338,0-8.231-2.904-9.498-7.042c-1.262-4.121,0.393-8.752,3.981-11.14
	c3.308-2.202,7.721-2.181,11.025,0.011c3.421,2.271,5.102,6.574,4.138,10.566C191.443,287.405,187.393,290.607,182.86,290.607z"/>
<g>
</g>
<g>
</g>
<g>
</g>
<g>
</g>
<g>
</g>
<g>
</g>
<g>
</g>
<g>
</g>
<g>
</g>
<g>
</g>
<g>
</g>
<g>
</g>
<g>
</g>
<g>
</g>
<g>
</g>
</svg>
