<svg id="Layer_1" enable-background="new 0 0 128 128" height="512" viewBox="0 0 128 128" width="512" xmlns="http://www.w3.org/2000/svg"><g><circle cx="66" cy="66" fill="#e6e7e8" r="58.5"/><g><circle cx="62" cy="62" fill="#fa759e" r="57.5"/><g><path d="m108.204 27.776-14.062 10.416c4.936 6.652 7.858 14.888 7.858 23.808 0 22.091-17.909 40-40 40v17.5c31.756 0 57.5-25.744 57.5-57.5 0-12.822-4.201-24.661-11.296-34.224z" fill="#ffd7e5"/></g><path d="m94.142 38.192 14.062-10.416c-10.477-14.121-27.27-23.276-46.204-23.276v17.5c13.172 0 24.854 6.368 32.142 16.192z" fill="#6dc9f7"/><circle cx="62" cy="62" fill="#d4fbff" r="40"/><path d="m25 62c0-21.588 17.105-39.172 38.5-39.962-.499-.018-.997-.038-1.5-.038-22.091 0-40 17.909-40 40s17.909 40 40 40c.503 0 1.001-.02 1.5-.038-21.395-.79-38.5-18.374-38.5-39.962z" fill="#fff"/><g><path d="m68.945 60.61c-1.955 1.405-4.349 2.243-6.945 2.243s-4.99-.837-6.945-2.243c-6.62.009-11.984 5.377-11.984 11.999v10.222c0 1.105.895 2 2 2h33.859c1.105 0 2-.895 2-2v-10.222c-.001-6.622-5.365-11.99-11.985-11.999z" fill="#0089ef"/><ellipse cx="62" cy="51.011" fill="#fff" rx="11.893" ry="11.842"/></g><g fill="#3a2c60"><path d="m71.337 59.841c2.197-2.304 3.556-5.409 3.556-8.83 0-7.081-5.784-12.842-12.893-12.842s-12.893 5.761-12.893 12.842c0 3.421 1.359 6.526 3.556 8.83-6.021 1.132-10.592 6.423-10.592 12.768v10.222c0 1.654 1.346 3 3 3h33.858c1.654 0 3-1.346 3-3v-10.222c0-6.345-4.571-11.636-10.592-12.768zm-9.337-19.672c6.006 0 10.893 4.864 10.893 10.842 0 5.979-4.887 10.842-10.893 10.842s-10.893-4.864-10.893-10.842 4.887-10.842 10.893-10.842zm17.929 42.662c0 .551-.449 1-1 1h-33.858c-.551 0-1-.449-1-1v-10.222c0-5.959 4.765-10.815 10.684-10.984 2.067 1.404 4.561 2.228 7.245 2.228 2.685 0 5.179-.823 7.246-2.228 5.918.17 10.683 5.025 10.683 10.984z"/><path d="m102 61c-.552 0-1 .448-1 1 0 3.55-.477 7.067-1.417 10.454-.148.532.164 1.083.696 1.231.089.025.18.037.268.037.438 0 .84-.291.963-.733.989-3.561 1.49-7.258 1.49-10.989 0-.552-.448-1-1-1z"/><path d="m62 3.5c-32.257 0-58.5 26.243-58.5 58.5s26.243 58.5 58.5 58.5 58.5-26.243 58.5-58.5-26.243-58.5-58.5-58.5zm44.771 24.093-12.463 9.232c-7.381-9.415-18.751-15.493-31.308-15.802v-15.498c17.805.312 33.622 8.894 43.771 22.068zm-101.271 34.407c0-30.819 24.807-55.937 55.5-56.475v15.5c-22.146.535-40 18.703-40 40.975s17.854 40.44 40 40.975v15.5c-30.693-.538-55.5-25.656-55.5-56.475zm57.5 56.475v-15.493c15.967-.387 30.277-9.996 36.646-24.714.219-.507-.014-1.095-.521-1.315-.507-.218-1.095.014-1.315.521-6.184 14.291-20.241 23.526-35.81 23.526-21.505 0-39-17.495-39-39s17.495-39 39-39c19.336 0 35.939 14.416 38.62 33.533.076.547.585.93 1.129.852.547-.077.928-.582.852-1.129-.925-6.597-3.435-12.656-7.098-17.827l12.458-9.228c6.624 9.255 10.539 20.575 10.539 32.799 0 30.819-24.807 55.937-55.5 56.475z"/></g></g></g></svg>