<svg id="Layer_1" enable-background="new 0 0 512 512" height="512" viewBox="0 0 512 512" width="512" xmlns="http://www.w3.org/2000/svg"><g><path d="m512 223.71v264.05c0 2.32-1.05 4.39-2.71 5.76-1.3 1.09-2.97 1.74-4.79 1.74h-497c-1.82 0-3.49-.65-4.79-1.74-1.66-1.37-2.71-3.44-2.71-5.76v-264.05z" fill="#ffc83e"/><path d="m459.78 223.71h52.22v264.05c0 2.32-1.05 4.39-2.71 5.76-1.3 1.09-2.97 1.74-4.79 1.74h-35c1.82 0 3.49-.65 4.79-1.74 1.66-1.37 2.71-3.44 2.71-5.76v-250.05c0-2.7-1.46-5.2-3.82-6.53z" fill="#ff9b40"/><path d="m509.29 493.52c-1.3 1.09-2.97 1.74-4.79 1.74h-497c-1.82 0-3.49-.65-4.79-1.74l154.4-185.7h197.78l122.11 146.86z" fill="#ffec61"/><path d="m512 223.71c0 2.71-1.46 5.21-3.82 6.54l-31.18 17.56-39.81 22.43-177.51 100.01c-1.14.64-2.41.96-3.68.96s-2.54-.32-3.68-.96l-177.51-100.01-70.99-39.99c-2.36-1.33-3.82-3.83-3.82-6.54 0-2.7 1.46-5.2 3.82-6.53l70.99-39.99 3.82-2.15c1.12-.64 2.39-.97 3.68-.97h347.38c1.29 0 2.56.33 3.69.97l3.81 2.15 70.99 39.99c2.36 1.33 3.82 3.83 3.82 6.53z" fill="#ffec61"/><path d="m512 223.71c0 2.71-1.46 5.21-3.82 6.54l-31.18 17.56v-10.1c0-2.7-1.46-5.2-3.82-6.53l-102.45-57.11h58.96c1.29 0 2.56.33 3.69.97l3.81 2.15 70.99 39.99c2.36 1.33 3.82 3.83 3.82 6.53z" fill="#ffc83e"/><path d="m437.19 24.24v246l-177.51 100.01c-1.14.64-2.41.96-3.68.96s-2.54-.32-3.68-.96l-26.36-14.85-151.15-85.16v-246c0-4.14 3.35-7.5 7.5-7.5h347.38c4.15 0 7.5 3.36 7.5 7.5z" fill="#dcf3ff"/><path d="m437.19 24.24v246l-177.51 100.01c-1.14.64-2.41.96-3.68.96s-2.54-.32-3.68-.96l-26.36-14.85 178.23-99.16v-239.5h25.5c4.15 0 7.5 3.36 7.5 7.5z" fill="#9bc9e0"/><g fill="#325a93"><path d="m137.382 87.294h237.273c4.143 0 7.5-3.357 7.5-7.5s-3.357-7.5-7.5-7.5h-237.273c-4.142 0-7.5 3.357-7.5 7.5s3.358 7.5 7.5 7.5z"/><path d="m374.655 162.052h-51.215c-4.143 0-7.5 3.357-7.5 7.5s3.357 7.5 7.5 7.5h51.215c4.143 0 7.5-3.357 7.5-7.5s-3.357-7.5-7.5-7.5z"/><path d="m137.382 162.052c-4.142 0-7.5 3.357-7.5 7.5s3.358 7.5 7.5 7.5h151.34c4.143 0 7.5-3.357 7.5-7.5s-3.357-7.5-7.5-7.5z"/><path d="m137.344 132.493h207.274c4.143 0 7.5-3.357 7.5-7.5s-3.357-7.5-7.5-7.5h-207.274c-4.142 0-7.5 3.357-7.5 7.5s3.358 7.5 7.5 7.5z"/><path d="m374.655 207.25h-237.311c-4.142 0-7.5 3.357-7.5 7.5s3.358 7.5 7.5 7.5h237.311c4.143 0 7.5-3.357 7.5-7.5s-3.357-7.5-7.5-7.5z"/><path d="m281.607 252.262h-51.215c-4.142 0-7.5 3.357-7.5 7.5s3.358 7.5 7.5 7.5h51.215c4.143 0 7.5-3.357 7.5-7.5s-3.357-7.5-7.5-7.5z"/></g><path d="m477 454.68 32.29 38.84c-1.3 1.09-2.97 1.74-4.79 1.74h-35c1.82 0 3.49-.65 4.79-1.74 1.66-1.37 2.71-3.44 2.71-5.76z" fill="#ffc83e"/></g></svg>